PathFileType	4	(X/Y/Z)	23_1_32_p1_0-236_filt_butterworth.trc
DataRate	CameraRate	NumFrames	NumMarkers	Units	OrigDataRate	OrigDataStartFrame	OrigNumFrames
53.0	53.0	5	27	m	53.0	88	236
Frame#	Time	RHip			RKnee			RAnkle			RBigToe			RSmallToe			RHeel			LHip			LKnee			LAnkle			LBigToe			LSmallToe			LHeel			Neck			Head			Nose			RShoulder			RElbow			RWrist			RThumb			RIndex			RPinky			LShoulder			LElbow			LWrist			LThumb			LIndex			LPinky			
		X1	Y1	Z1	X2	Y2	Z2	X3	Y3	Z3	X4	Y4	Z4	X5	Y5	Z5	X6	Y6	Z6	X7	Y7	Z7	X8	Y8	Z8	X9	Y9	Z9	X10	Y10	Z10	X11	Y11	Z11	X12	Y12	Z12	X13	Y13	Z13	X14	Y14	Z14	X15	Y15	Z15	X16	Y16	Z16	X17	Y17	Z17	X18	Y18	Z18	X19	Y19	Z19	X20	Y20	Z20	X21	Y21	Z21	X22	Y22	Z22	X23	Y23	Z23	X24	Y24	Z24	X25	Y25	Z25	X26	Y26	Z26	X27	Y27	Z27	
88	1.660377358490566	0.1343169365249105	0.4392960780815775	0.9809385359958238	0.14678182318888738	0.462851789855731	1.3761205485257986	0.144375737366413	0.5700536071318726	1.7960450292249739	0.1280632886293983	0.38167840345011494	1.7900966123915314	0.18387843695359612	0.41716270516814924	1.8043112542848427	0.14977016674219276	0.6453457264087691	1.881813181462044	-0.047570669939222064	0.4923663847224964	0.9834015442197042	-0.04232214253278736	0.545371331540161	1.398636608807077	-0.028941694138987523	0.5979323855082208	1.8082439919914097	-0.04308582495204216	0.42700874806208755	1.8014175048360788	-0.08863843274587678	0.4701706663386108	1.811487190449354	-0.011328439406912454	0.6529603209008474	1.8542091148913113	0.05579016424614258	0.44332224894424976	0.43961608309686434	0.07636075422933085	0.39663668575093924	0.2082657307853298	0.04534021487789271	0.33096505027713374	0.3145128969853618	0.19740176113723681	0.4070041231227659	0.5340759956476668	0.20280525149055448	0.38180622540735404	0.7806232591461283	0.054615605525351614	0.3089318334611032	0.9495909771371127	0.024554118149747936	0.29782535639700725	1.0380291089022178	0.02407263292897861	0.314864268626215	1.047862907441705	0.024240866040812395	0.3238272121914869	1.0444367705964208	-0.09596718281935021	0.43752442405656833	0.5149056494568108	-0.11372529656191688	0.4257395378322717	0.763096033620414	-0.049485804265697715	0.3275720507105932	0.946557703943818	0.015410681461332324	0.2708561781157938	1.003350493977015	0.021597236748087802	0.28432179183274403	1.0346026664380048	0.014243707089882296	0.31810535976639154	1.045170030758341
89	1.679245283018868	0.1339956172643961	0.4391257393996072	0.9793195913356928	0.14679326252631583	0.46294157365436434	1.3760817685359148	0.14439387934811598	0.5699200062329185	1.7963995644562334	0.12773310606397237	0.38106455797375205	1.7896273302921633	0.18395040185854206	0.41741539422794177	1.8043990571518476	0.1496366601845568	0.6451537503251707	1.880826096812727	-0.047627897212186604	0.492314394800562	0.9833736601707755	-0.042603293867665475	0.5468639265363007	1.4010475371008426	-0.02892650680856658	0.5980725640489943	1.8082777321542893	-0.04303479665678461	0.42701079682447274	1.8013795766577458	-0.08863760777019485	0.47018129049341795	1.8114294497231618	-0.011359092465323885	0.6530025382489844	1.8542269778705531	0.056062996390436666	0.4433583073269846	0.4395676851180896	0.076272821117598	0.39663117087634625	0.2082708410053006	0.04531633392124074	0.33097814470494985	0.31450059580359785	0.1974019547160955	0.40698501017341854	0.5341005000630921	0.20282928372507175	0.3817150468652961	0.7807233354031755	0.05460165831789207	0.3088548197111309	0.9496010225630431	0.026031124348167487	0.30083034094064903	1.0390601021277142	0.024043847783416412	0.31498183711648364	1.0478929049761212	0.023113210126138567	0.3237249630773726	1.04411958551103	-0.09599130011804421	0.43749636995926167	0.5148315269261996	-0.11373779923077358	0.4257565282808355	0.763030650967703	-0.04957364491691457	0.32789605460360305	0.9462849632897157	0.016822619140331847	0.27526537343717355	1.0051075008164998	0.02363637655266016	0.2884498794742387	1.0360420565607478	0.01671270428021187	0.3192065705297756	1.0455735049527017
90	1.69811320754717	0.13377624899405705	0.4391129381287323	0.9781600484405537	0.1469371901292198	0.4632358926541722	1.3761365018304448	0.14441669640296506	0.5699888301376104	1.7963877106179045	0.12783161597221632	0.3813104114841497	1.7897773136464328	0.1839593070832795	0.41743056861800854	1.8043911720198644	0.14959251466087428	0.6449135798740844	1.8797665479303496	-0.04763305218312648	0.4923397446015281	0.983375105836378	-0.042725846099148854	0.5468140467510063	1.4024299510817126	-0.028887590800569914	0.5981657708827347	1.8083154044098584	-0.04304120767122708	0.42683293458064914	1.8013026265843632	-0.08863934649335578	0.4701868159243634	1.8113619718980647	-0.011415469812699698	0.6529137152781305	1.8541578005971537	0.056115815950548396	0.44339143407722037	0.4395210852613382	0.07618319424601812	0.3966503280565247	0.2082445458635342	0.04531418998126232	0.3310141540804432	0.31448431949913785	0.19741307900050714	0.40699102279270505	0.5341875913343135	0.20284530962045064	0.3816434648081771	0.7807972310002322	0.05456231827739655	0.30881433814328424	0.9495895209935323	0.02666530143200584	0.3017530457820033	1.0394188425198378	0.024030221665480304	0.315015307605441	1.0479098667290971	0.022620034067197755	0.32355595333599163	1.0440198113923134	-0.09602198741127728	0.4374926634768369	0.5147491831270183	-0.11375059296042853	0.4257491155482255	0.7630471922234481	-0.049336563512004425	0.3269815808711327	0.9453988833257698	0.018655209037808568	0.27485798020052943	1.0056998842989613	0.02624679526749111	0.29108220685587644	1.0369828254228688	0.0183408694046334	0.31916356802848295	1.045580528870129
91	1.7169811320754718	0.1337172879855676	0.4391039209394438	0.9778023854990413	0.14704515402515633	0.4634303810965343	1.3762795821132119	0.1444299147643082	0.5700612206997818	1.796335996625746	0.12790922099250807	0.38143132859549866	1.7899348697527422	0.18403015805752496	0.41721484170992407	1.8043085952162308	0.14953825137628468	0.6447422097224856	1.8792328102672289	-0.047627264528343136	0.4923376804399022	0.9833737167696953	-0.042731220312098916	0.5465985006102336	1.4027725178828543	-0.028819808893981343	0.5981958364326543	1.8083446712237996	-0.043068054509959555	0.4263381764883673	1.801097999725426	-0.08866199903932084	0.4701652069720029	1.8113474151091145	-0.011489114040316587	0.6527281255861053	1.8540953600990777	0.05605666656437879	0.44340894082842514	0.4394964714363444	0.07612757158593357	0.39669465694493744	0.20820264892837656	0.04539587168493836	0.3310700162313377	0.3144721363433678	0.19741904955042533	0.4069926628092455	0.5342492365394043	0.2028534231939456	0.38159390007519994	0.7807822888092099	0.054458351262742	0.3088321446965964	0.9495639615950303	0.026728376985301533	0.30158218021681965	1.0394081087874723	0.02402966674619114	0.31501612054439654	1.0479191376062569	0.02254033935091213	0.3235708440606176	1.0440289846327542	-0.0960785051425463	0.43747897652876094	0.5147377827960353	-0.11375530073446442	0.4257255864535089	0.7631597735457264	-0.048482110492114885	0.32365973392994146	0.9441139036946895	0.020059180116400673	0.272231382236369	1.005154000618135	0.028833320530637	0.29128904862350513	1.0371186801210377	0.0187389071551808	0.31889271129674923	1.0455198577086326
92	1.7358490566037736	0.13372985814100524	0.4390667672955021	0.9778704821265072	0.14621774682996325	0.4624297047945237	1.3762374190698126	0.14442898012830807	0.5700853351682721	1.7962965555870511	0.12788832322160198	0.38122730768489643	1.7900434530574243	0.18426355286914353	0.41692438251661873	1.8043492338740352	0.14942968767505138	0.644809181643263	1.8797082002934093	-0.047627364789724555	0.4923227143913428	0.9833836120491755	-0.042715314077858516	0.5465367719925901	1.4026345207565338	-0.02881885173155603	0.5982040823609919	1.8083674135161452	-0.043123649426031224	0.4260108364427134	1.8009912760359599	-0.08875971575714968	0.47020759495283265	1.8114199538788287	-0.011554311197076174	0.6524943961625663	1.8540689846575513	0.056000860158859855	0.4434221790417945	0.43949851810210344	0.07611729161596506	0.3967416908581411	0.20816674676659944	0.04546442128599212	0.33110607270315023	0.3144666743020711	0.19735653688227928	0.4069043770838512	0.5339243738785318	0.2028310851118854	0.3816199898867133	0.7803753299252995	0.054348160906317076	0.3088680462130575	0.9495375623566319	0.02589811508741123	0.30136991908477023	1.0393328033943385	0.024007701908912726	0.3149701475835577	1.0479049822012625	0.022975801191198603	0.3238049393876035	1.0444027464723409	-0.09613240348317563	0.4374768756220896	0.5147741902704063	-0.11375203539823844	0.4257008087982228	0.7632653257695513	-0.04729605010529409	0.3189648781044276	0.9431386305661194	0.02072024975677905	0.27043562210973154	1.0041425684084668	0.03045727058007276	0.2907842522819912	1.0370028602993833	0.01845562200412431	0.3186374124266059	1.0454559356829276
